<?xml version="1.0" encoding="UTF-8"?>
<svg id="Calque_1" data-name="Calque 1" xmlns="http://www.w3.org/2000/svg" viewBox="0 0 1343.75 265.69">
  <defs>
    <style>
      .cls-1 {
        fill: #fff;
      }
    </style>
  </defs>
  <path class="cls-1" d="M682.56,250.45c-15.76.4-28.94-12.22-30.65-27.9-4.09-37.59-5.73-114.17,47.23-121.72,64.37-9.17,100.23,48.36,95.86,116.79-1.01,15.75-14.7,28.44-30.26,25.82-4.46-.75-8.79-2.68-12.41-6.51-12.67-13.39-1.56-89.21-32.51-80.84-9.73,2.63-16.17,11.95-16.67,22.02l-2.94,59.5s-1.76,12.42-17.65,12.83Z"/>
  <path class="cls-1" d="M855.77,54c.8,14.07,14.23,30.87-5.02,35.94-19.84,5.23-32.19,25.42-25.3,44.74.13.36.26.73.4,1.09,8.79,23.09,23.2-13.77,23.91,25.46.72,39.23-7.65,90.65,35.88,95.56,25.91,2.93,40.52-7.93,48.1-17.2,5.77-7.06,8.89-16,7.64-25.03-.99-7.13-4.72-14.56-15.93-14.95-21.78-.76-30.17,14.43-29.99-11.4.18-25.84-11.06-61.19,16.24-55.48,27.3,5.71,34.27-39.9,20.89-44.84-13.38-4.94-29.88-13.73-27.62-45.5.95-13.23-5.07-16.58-12.41-15.98-12.58,1.03-37.5,14.98-36.78,27.58Z"/>
  <path class="cls-1" d="M1000.4,30.9s-44.07,10.21-28.91,52.83c15.16,42.62,71.39,6.78,61.75-18.92-9.64-25.7-20.59-38.89-32.84-33.91Z"/>
  <path class="cls-1" d="M979.54,157.55c1.33-22.22,26.96-35.64,44.79-22.31.97.72,1.91,1.52,2.83,2.39,14.19,13.42,4.46,77.08-.8,105.81-2.27,12.4-12.72,22.22-25.32,22.25-7.26.02-14.93-3.02-20.73-12.88-4.09-6.95-5.56-15.1-5.08-23.15.95-15.86,2.94-49.3,4.31-72.11Z"/>
  <path class="cls-1" d="M1292.79.53c-12.3-2.86-24.26,6.31-26.64,18.71-7.81,40.66-19.97,156.92-6.29,191.64,13.19,33.5,27.23,35.74,57.78,37.34,24.12,1.26,35.82-29.73,16.22-43.85-.26-.19-.52-.37-.79-.56-25.8-17.81-27.87,4.71-31.76-52.08-.75-10.94-.56-21.94.53-32.84l8.98-90.17c.84-8.43-1.83-17.09-8.07-22.82-2.62-2.4-5.9-4.42-9.96-5.37Z"/>
  <path class="cls-1" d="M429.46,93.72s-28.15-40.97-80.72-9.28c-52.57,31.69-16.54,94.09,12.72,96.73,29.25,2.64,21.91,42.18,5.36,36.77-13-4.26-31.53-9.37-34.8,7.81-2.61,13.68,6.02,26.69,18.81,32.18,13.69,5.88,34.83,7.66,61.68-12.87,0,0,10.44-8.2,14.61-25.62,5.84-24.41-6.23-49.68-28.02-62.12-14.94-8.53-30.6-20.99-20.5-32.01,10.93-11.93,26.13-7.27,35.95-2.14,8.79,4.59,20.22,1.03,23.64-8.27,2.16-5.9-.62-11.48-8.71-21.18Z"/>
  <path class="cls-1" d="M297.78,92.99s-28.15-40.97-80.72-9.28c-52.57,31.69-16.54,94.09,12.72,96.73s23.25,38.59,5.36,36.77c-13.61-1.39-31.53-9.37-34.8,7.81-2.61,13.68,6.02,26.69,18.81,32.18,13.69,5.88,34.83,7.66,61.68-12.87,0,0,10.44-8.2,14.61-25.62,5.84-24.41-6.23-49.68-28.02-62.12-14.94-8.53-30.6-20.99-20.5-32.01,10.93-11.93,26.13-7.27,35.95-2.14,8.79,4.59,20.22,1.03,23.64-8.27,2.16-5.9-3.93-12.73-8.71-21.18Z"/>
  <path class="cls-1" d="M101.88,109.58c-20.05-.06-31.78-19.89-21.76-34.36,2.28-3.29,5.47-6.08,9.91-7.92,15.37-6.38,37.62-3,49.83-.32,8.68,1.9,18.13-.49,23.92-7.22,2.6-3.02,4.74-6.91,5.6-11.88,2.53-14.62-8.76-28.11-23.47-30.05L59.51,6.42S20.15,2.44,19.24,57.46c-.1,6.24-.66,12.48-1.4,18.68L0,226.03s-.88,32.33,37.51,30.32c7.63-.4,15.27-.68,22.89-.1l40.47,3.04c14.07,1.06,26.79-8.36,29.89-22.13l.07-.29c3.29-14.85-7.62-29.11-22.74-30.79-19.04-2.11-48.11-7.86-48.77-23.36-.98-23.09,15.19-27.32,26.9-22.78,5.78,2.24,16.54,3.04,25.95,3.27,11.54.28,21.94-7.16,24.97-18.31,1.39-5.11,2.42-10.83,2.41-16.56-.01-10.25-8.42-18.67-18.67-18.7l-18.99-.06Z"/>
  <path class="cls-1" d="M529.39,180.83c4.35.4,91.73,10.22,91.58-21.86-.15-31.44,4.01-87.02-78.53-83.46-82.54,3.56-87.09,111.42-68.7,135.76,17.45,23.1,40.93,58.85,100.84,40.45,8.64-2.65,15.55-9.93,16.54-18.91.69-6.26-1.05-13.51-9.07-19.91-5.81-4.64-13.33-6.51-20.75-6.09-13.81.78-40.26-.37-45.98-19.6-.98-3.28,1.76-6.54,5.18-6.5l8.52.1c.14,0,.23,0,.37.02ZM515.82,127.69c3.35-5.65,11.33-12.61,30.3-15.59,11.77-1.85,23.98,3.52,29.48,14.09,4.15,7.97,4.42,16.36-11.12,18.04-20.56,2.23-36.26-2.09-44.53-5.26-4.52-1.73-6.61-7.11-4.14-11.27Z"/>
  <path class="cls-1" d="M1136.91,181.89c4.35.4,91.73,8.79,91.58-21.86-.16-31.45,4.01-87.02-78.53-83.46-82.54,3.56-87.09,111.42-68.7,135.76,17.45,23.1,40.93,58.85,100.84,40.45,8.64-2.65,15.55-9.93,16.54-18.91.69-6.26-1.05-13.5-9.04-19.89-5.81-4.65-13.34-6.53-20.77-6.12-13.79.78-40.2-.36-45.97-19.53-1-3.33,1.81-6.61,5.29-6.57l8.4.1.37.02ZM1120.39,129.72c3.21-5.72,11.13-12.93,30.55-15.97,11.77-1.84,23.95,3.53,29.45,14.1,4.15,7.97,4.42,16.35-11.12,18.04-20.88,2.26-36.75-2.23-44.91-5.41-4.3-1.68-6.23-6.72-3.97-10.75Z"/>
</svg>