<?xml version="1.0" encoding="UTF-8"?>
<svg id="logo_principzal" data-name="logo principzal" xmlns="http://www.w3.org/2000/svg" viewBox="0 0 841.89 595.28">
  <defs>
    <style>
      .cls-1, .cls-2 {
        fill: #592898;
      }

      .cls-3 {
        fill: #9767f8;
      }

      .cls-4 {
        fill: #b3f100;
      }

      .cls-2 {
        stroke: #592898;
      }

      .cls-2, .cls-5 {
        stroke-miterlimit: 10;
        stroke-width: 1.92px;
      }

      .cls-5 {
        stroke: #ff64d7;
      }

      .cls-5, .cls-6 {
        fill: #ff64d7;
      }
    </style>
  </defs>
  <path class="cls-5" d="M255.27,189.93c0,.88-.19,1.77-.58,2.62-.02.02-.02.05-.03.07l-10,2.18-3.44.75-2.69.58c-3.72.82-7.38,1.92-10.92,3.35l-2.92,1.17-2.07.83-12.94,5.19-1.53.63-9.93,3.98-14.13,5.66c-1.55.51-3.27.2-4.52-.85-1.85-1.51-1.46-4.44.71-5.42l7.69-3.5,3.84-1.75c.31-.14.41-.51.22-.78-.15-.22-.43-.31-.68-.2l-4.81,2.16-13.57,6.1c-2.41,1.07-5.27.36-6.89-1.75-1.79-2.35-.87-5.75,1.87-6.85l5.97-2.57,12.58-5.39-.65-1.36-13.96,5.93-9.34,3.98c-2.87,1.21-6.19.15-7.81-2.48-.58-.95-.85-1.97-.85-3.01,0-1.36.48-2.69,1.39-3.72.48-.58,1.09-1.05,1.8-1.41l13.49-6.96c.65,3.1,3.38,5.41,6.67,5.41,1.75,0,3.38-.63,4.66-1.67,1.28-1.05,2.19-2.53,2.53-4.25l2.5-12.64,12.04-6.94s6.46-.14,14.47-1.12l38.31,18.47c2.21,1.05,3.5,3.27,3.5,5.58Z"/>
  <g>
    <path class="cls-5" d="M405.8,111.58c-2.58-7.04-6.56-13.03-11.84-18.38-9.42-9.56-21.48-16.73-33.35-22.8-6.17-3.16-12.47-6.04-18.84-8.76-4.46-1.89-8.94-3.86-13.49-5.56-8.66-3.26-18.28-3.33-27.24-1.5-17.38,3.59-31.43,17.5-36.77,34.15-1.85,5.76-2.19,11.85-2.19,17.86v47.21l-19.51-.2c-1.97-.17-5.08-.51-8.71-.97-.34-.05-.66-.08-1-.14h-.07l-2.43-.19-25.54-1.9c-.63.07-1.28.14-1.92.22-7.36.87-15.19,2.16-20.36,7.33l-8.67,8.69c-1.43,1.43-2.45,3.18-2.99,5.08-.31,1.04-.46,2.13-.46,3.21v10.75c0,.48.05.95.15,1.41.65,3.1,3.38,5.41,6.67,5.41,1.75,0,3.38-.63,4.66-1.67,1.28-1.05,2.19-2.53,2.53-4.25l2.5-12.64,12.04-6.94s6.46-.14,14.47-1.12l38.31,18.47c2.21,1.05,3.5,3.27,3.5,5.58,0,.88-.19,1.77-.58,2.62-.02.02-.02.05-.03.07l7.43-1.62v93.16c0,8.89,7.82,17.41,17.01,17.01,9.22-.43,17.01-7.48,17.01-17.01v-66.08c.8.99,1.62,1.96,2.41,2.94,8.96,10.92,17.92,21.82,26.89,32.74,7.79,9.49,15.58,18.98,23.37,28.47,3.76,4.57,7.4,9.3,11.29,13.76.05.07.1.14.17.2,2.6,3.16,8.08,4.98,12.02,4.98,4.17,0,9.15-1.85,12.02-4.98,2.98-3.25,5.19-7.5,4.98-12.02-.2-1.51-.41-3.01-.61-4.52-.82-2.89-2.26-5.39-4.37-7.5-3.08-3.76-6.17-7.52-9.25-11.27-7.4-9.01-14.79-18.03-22.19-27.04-8.96-10.92-17.92-21.84-26.89-32.75-5.2-6.34-10.41-12.69-15.61-19.03,20.24-4.25,40.24-9.66,59.28-17.79,15.29-6.51,30.58-16.09,36.41-32.46,2.21-6.21,2.04-14.05-.22-20.2ZM373.02,122.52c-.95,1.05-1.99,2.04-3.06,2.98t-.02.02c-4.83,3.45-10.17,6.17-15.59,8.55-18.04,7.33-37.26,11.87-56.29,15.8-.65.14-1.31.27-1.96.39v-26.39c0-6.79-.05-13.57,0-20.36,0-.77.03-1.53.09-2.3v-.02c.29-1.34.65-2.69,1.09-4,.63-1.26,1.34-2.47,2.11-3.62.02-.02.03-.03.03-.05.92-1,1.87-1.96,2.89-2.84,1.16-.78,2.35-1.48,3.59-2.11.02-.02.05-.03.07-.03,1.31-.46,2.64-.83,4-1.12,1.39-.1,2.81-.1,4.2,0,3.27.7,6.39,1.89,9.49,3.18.07.03.15.07.22.1.17.07.32.14.49.2,11.68,4.97,23.25,10.44,33.96,17.28,2.06,1.33,4.08,2.69,6.05,4.13-.12-.1-.22-.2-.34-.29.48.34.95.71,1.43,1.09-.32-.25-.66-.49-1-.75,2.67,2.16,5.22,4.49,7.47,7.07.54.8,1.05,1.62,1.5,2.45-.14.22-.26.43-.41.63Z"/>
    <path class="cls-5" d="M365.47,113.11c-.32-.25-.66-.49-1-.75-.02-.02-.05-.03-.09-.05-.12-.1-.22-.2-.34-.29.48.34.95.71,1.43,1.09Z"/>
  </g>
  <g>
    <path class="cls-6" d="M86.87,294.6l.63-10.26.17-5.96c.03-1.22.04-2.45.04-3.69,0-.21-.01-.9-.04-2.05,1.34.03,2.32.04,2.96.04.73,0,1.71-.01,2.92-.04l-.11,3.04c.55-.78,1.01-1.36,1.4-1.74.39-.38.82-.71,1.31-.98.48-.27,1.02-.48,1.61-.63.59-.14,1.19-.22,1.81-.22.58,0,1.17.07,1.77.22,0,1.34.06,3.04.19,5.1-.85-.23-1.62-.35-2.31-.35-.83,0-1.57.13-2.21.38-.64.25-1.22.63-1.73,1.14-.51.51-.93,1.14-1.26,1.89-.27.6-.47,1.39-.6,2.35-.11.75-.21,2.03-.28,3.84-.08,1.81-.12,3.6-.12,5.35,0,.68.02,1.53.06,2.55-1.1-.03-2.1-.04-3.01-.04s-1.96.01-3.2.04Z"/>
    <path class="cls-6" d="M124.98,289.7c-.19.85-.45,2.37-.8,4.58-1.55.33-2.86.55-3.93.67-1.07.12-2.14.17-3.22.17-1.89,0-3.57-.19-5.06-.56-1.49-.37-2.8-1.06-3.92-2.06-1.12-1-1.95-2.23-2.48-3.68-.53-1.45-.8-2.98-.8-4.57,0-1.77.31-3.48.93-5.14.62-1.66,1.49-3.02,2.6-4.08,1.11-1.06,2.39-1.8,3.81-2.24s2.91-.66,4.47-.66c1.47,0,2.86.18,4.19.55,1.32.37,2.44.97,3.34,1.8.9.83,1.59,1.84,2.07,3.01.48,1.17.72,2.47.72,3.91,0,.68-.07,1.37-.22,2.09l-15.83.02c-.03.53-.04.96-.04,1.27,0,.96.17,1.85.5,2.66.33.81.81,1.49,1.45,2.05.63.56,1.39.98,2.27,1.24.88.27,1.74.4,2.59.4.99,0,2.07-.11,3.23-.32,1.16-.22,2.54-.58,4.13-1.1ZM111.03,280.97l10.1.02c0-.69-.02-1.2-.06-1.53-.04-.33-.14-.71-.29-1.13s-.36-.8-.62-1.12c-.26-.32-.56-.59-.91-.81-.35-.21-.74-.38-1.2-.49s-.94-.17-1.46-.17c-.6,0-1.19.09-1.76.28s-1.09.46-1.57.82c-.47.36-.86.76-1.15,1.2-.3.45-.51.87-.66,1.28-.14.41-.29.96-.43,1.64ZM113.67,269.68l.8-1.99c.16-.43.35-.95.58-1.55.23-.61.45-1.17.67-1.71,1.17.03,2.24.04,3.22.04.81,0,1.89-.01,3.24-.04-.96,1.19-1.68,2.13-2.16,2.81l-1.79,2.44c-.76-.03-1.54-.04-2.33-.04-.71,0-1.45.01-2.22.04Z"/>
    <path class="cls-6" d="M153.77,294.6c-1.27-.03-2.24-.04-2.92-.04-.85,0-1.81.01-2.89.04l.04-3.58c-.4.61-.76,1.09-1.06,1.46-.3.37-.7.73-1.19,1.08-.49.35-1.02.63-1.6.84-.58.21-1.23.38-1.97.52-.74.14-1.53.21-2.36.21-1.61,0-3.01-.23-4.21-.7-1.19-.47-2.14-1.18-2.84-2.13-.7-.95-1.05-2.31-1.05-4.08v-.45l.35-5.57.33-7.34c.01-.59.02-1.32.02-2.2,1.37.03,2.44.04,3.21.04.82,0,1.81-.01,2.98-.04l-.72,9.85c-.04.76-.08,1.41-.1,1.93-.02.53-.03.9-.03,1.13,0,1.04.15,1.9.46,2.58.31.68.85,1.21,1.62,1.57.77.36,1.59.54,2.47.54s1.62-.16,2.37-.48c.68-.29,1.25-.69,1.74-1.21.48-.52.89-1.22,1.22-2.09.24-.63.43-1.51.56-2.63.1-.79.19-2.15.28-4.08.12-2.33.2-4.7.25-7.1,1.43.03,2.51.04,3.26.04.85,0,1.81-.01,2.87-.04-.17,2.06-.35,4.63-.54,7.72-.19,3.09-.32,5.64-.39,7.64s-.13,4.21-.17,6.6Z"/>
    <path class="cls-6" d="M159.87,294.19l-.47-4.75c1.41.58,2.6.97,3.58,1.2.98.22,1.88.33,2.7.33s1.51-.1,2.07-.29c.56-.19.98-.48,1.25-.86.27-.38.41-.78.41-1.2,0-.19-.02-.36-.05-.52-.04-.16-.1-.32-.19-.5-.09-.17-.2-.34-.32-.49-.12-.15-.29-.32-.51-.52-.22-.19-.53-.44-.93-.75l-1.17-.93c-1.12-.88-1.98-1.57-2.57-2.07-.59-.5-1.09-1.02-1.49-1.54s-.71-1.08-.92-1.66c-.21-.58-.31-1.18-.31-1.78,0-1.05.32-2.05.96-3s1.57-1.64,2.8-2.08c1.22-.44,2.66-.66,4.32-.66,1.89,0,4.06.22,6.52.67l.28,4.51c-1.67-.68-3.28-1.02-4.81-1.02-.83,0-1.57.08-2.19.25-.63.17-1.08.42-1.35.76s-.41.72-.41,1.13c0,.25.04.49.13.72.09.24.24.49.45.75.22.26.46.5.75.73.28.23.87.68,1.76,1.36.89.68,1.67,1.29,2.34,1.83.67.55,1.22,1.1,1.65,1.65s.76,1.15.99,1.78c.23.63.35,1.27.35,1.92,0,1.08-.33,2.08-.99,3-.66.92-1.66,1.64-3,2.16-1.34.52-2.84.78-4.49.78-.86,0-1.91-.07-3.15-.21-1.24-.14-2.56-.38-3.97-.72Z"/>
    <path class="cls-6" d="M180.58,294.19l-.47-4.75c1.41.58,2.6.97,3.58,1.2.98.22,1.88.33,2.7.33s1.51-.1,2.07-.29c.56-.19.98-.48,1.25-.86.27-.38.41-.78.41-1.2,0-.19-.02-.36-.05-.52-.04-.16-.1-.32-.19-.5-.09-.17-.2-.34-.32-.49-.12-.15-.29-.32-.51-.52-.22-.19-.53-.44-.93-.75l-1.17-.93c-1.12-.88-1.98-1.57-2.57-2.07-.59-.5-1.09-1.02-1.49-1.54s-.71-1.08-.92-1.66c-.21-.58-.31-1.18-.31-1.78,0-1.05.32-2.05.96-3s1.57-1.64,2.8-2.08c1.22-.44,2.66-.66,4.32-.66,1.89,0,4.06.22,6.52.67l.28,4.51c-1.67-.68-3.28-1.02-4.81-1.02-.83,0-1.57.08-2.19.25-.63.17-1.08.42-1.35.76s-.41.72-.41,1.13c0,.25.04.49.13.72.09.24.24.49.45.75.22.26.46.5.75.73.28.23.87.68,1.76,1.36.89.68,1.67,1.29,2.34,1.83.67.55,1.22,1.1,1.65,1.65s.76,1.15.99,1.78c.23.63.35,1.27.35,1.92,0,1.08-.33,2.08-.99,3-.66.92-1.66,1.64-3,2.16-1.34.52-2.84.78-4.49.78-.86,0-1.91-.07-3.15-.21-1.24-.14-2.56-.38-3.97-.72Z"/>
    <path class="cls-6" d="M201.88,294.6c.22-2.16.37-3.97.46-5.42.15-2.3.27-4.96.38-7.97.11-3.01.19-5.86.23-8.57,1.4.03,2.45.04,3.15.04.64,0,1.69-.01,3.13-.04-.19,2.5-.35,4.89-.47,7.17s-.21,4.88-.26,7.82c-.06,2.94-.08,5.26-.08,6.97-1.31-.03-2.36-.04-3.16-.04-.75,0-1.88.01-3.39.04ZM203.06,268.88c.06-1.48.09-2.62.09-3.41v-.69c1.31.03,2.38.04,3.2.04,1.12,0,2.17-.01,3.13-.04-.04.36-.07.77-.09,1.23l-.11,2.87c-1.09-.03-2.1-.04-3.02-.04s-1.99.01-3.2.04Z"/>
    <path class="cls-6" d="M228.46,290.08c-.17.79-.45,2.26-.82,4.4-1.21.27-2.16.45-2.85.52-.69.07-1.34.11-1.94.11-1.07,0-2.02-.1-2.86-.3-.84-.2-1.54-.56-2.08-1.07s-.92-1.11-1.11-1.79c-.19-.68-.29-1.39-.29-2.13,0-.19,0-.44.02-.75s.07-1.34.17-3.07l.5-8.98h-3.11c.07-.86.14-2.25.19-4.17h3.25c.09-.83.17-2.25.26-4.25l2.55-.5c.53-.1,1.56-.34,3.09-.71-.1,1.94-.16,3.76-.18,5.46h5.49c-.1,1.94-.15,3.33-.15,4.17h-5.51c-.3,5.86-.45,9.25-.45,10.17s.1,1.58.29,2.07c.19.49.51.84.94,1.06s.89.32,1.38.32c.36,0,.74-.03,1.13-.09s1.09-.22,2.08-.48Z"/>
    <path class="cls-6" d="M252.35,289.7c-.19.85-.45,2.37-.8,4.58-1.55.33-2.86.55-3.93.67-1.07.12-2.14.17-3.22.17-1.89,0-3.57-.19-5.06-.56-1.49-.37-2.8-1.06-3.92-2.06-1.12-1-1.95-2.23-2.48-3.68-.53-1.45-.8-2.98-.8-4.57,0-1.77.31-3.48.93-5.14.62-1.66,1.49-3.02,2.6-4.08,1.11-1.06,2.39-1.8,3.81-2.24s2.91-.66,4.47-.66c1.47,0,2.86.18,4.19.55,1.32.37,2.44.97,3.34,1.8.9.83,1.59,1.84,2.07,3.01s.72,2.47.72,3.91c0,.68-.07,1.37-.22,2.09l-15.83.02c-.03.53-.04.96-.04,1.27,0,.96.17,1.85.5,2.66.33.81.81,1.49,1.45,2.05.63.56,1.39.98,2.27,1.24.88.27,1.74.4,2.59.4.99,0,2.07-.11,3.23-.32,1.16-.22,2.54-.58,4.13-1.1ZM238.4,280.97l10.1.02c0-.69-.02-1.2-.06-1.53s-.14-.71-.29-1.13c-.15-.42-.36-.8-.62-1.12s-.56-.59-.91-.81-.75-.38-1.2-.49c-.45-.11-.94-.17-1.46-.17-.6,0-1.19.09-1.76.28s-1.09.46-1.57.82c-.47.36-.86.76-1.15,1.2-.3.45-.51.87-.66,1.28-.14.41-.29.96-.43,1.64Z"/>
  </g>
  <g>
    <g>
      <path class="cls-3" d="M242.2,241.99c-.46-.01-.82-.02-1.07-.02-.28,0-.66,0-1.15.02l.07-1.45c-.24.32-.45.56-.63.73-.17.17-.39.33-.65.48s-.54.26-.83.33c-.3.07-.61.11-.93.11-.53,0-1.03-.1-1.49-.29-.47-.19-.86-.47-1.19-.82-.33-.35-.57-.77-.72-1.25-.15-.48-.23-.99-.23-1.52,0-.72.14-1.43.42-2.12.28-.69.66-1.25,1.14-1.67s1.03-.73,1.63-.91c.61-.18,1.26-.27,1.96-.27.5,0,1.07.05,1.71.14.04-.72.06-1.48.06-2.27v-.56c.52.01.92.02,1.2.02.36,0,.76,0,1.21-.02-.12,1.41-.24,3.32-.34,5.74-.11,2.42-.16,4.29-.16,5.59ZM240.15,235.07c-.42-.11-.81-.17-1.2-.17-.44,0-.86.06-1.25.18-.4.12-.75.33-1.06.62-.31.29-.54.67-.71,1.13s-.25.9-.25,1.33.08.82.23,1.17c.15.35.39.63.71.84.32.21.68.31,1.09.31.3,0,.58-.05.83-.16.25-.11.48-.27.68-.5s.38-.51.52-.87c.14-.35.24-.83.3-1.41.04-.43.08-1.26.11-2.47Z"/>
      <path class="cls-3" d="M252.77,240.11c-.07.33-.17.91-.31,1.76-.6.13-1.1.21-1.51.26s-.82.07-1.24.07c-.72,0-1.37-.07-1.95-.22-.57-.14-1.07-.41-1.51-.79-.43-.38-.75-.86-.95-1.41-.21-.56-.31-1.15-.31-1.76,0-.68.12-1.34.36-1.98s.57-1.16,1-1.57.92-.69,1.47-.86c.55-.17,1.12-.25,1.72-.25.56,0,1.1.07,1.61.21.51.14.94.37,1.28.69.35.32.61.71.8,1.16.19.45.28.95.28,1.5,0,.26-.03.53-.08.8h-6.09c-.01.21-.02.38-.02.5,0,.37.06.71.19,1.02.13.31.31.57.56.79.24.22.53.38.87.48.34.1.67.15,1,.15.38,0,.8-.04,1.24-.13.45-.08.98-.22,1.59-.42ZM247.41,236.75h3.89c0-.26,0-.45-.03-.58-.02-.13-.05-.27-.11-.43-.06-.16-.14-.31-.24-.43-.1-.12-.22-.23-.35-.31-.13-.08-.29-.15-.46-.19s-.36-.07-.56-.07c-.23,0-.46.04-.68.11s-.42.18-.6.31-.33.29-.44.46-.2.33-.25.49c-.05.16-.11.37-.17.63Z"/>
    </g>
    <g>
      <path class="cls-3" d="M238.51,259.04c.08-.94.18-2.62.3-5.04.12-2.43.19-4.52.22-6.29.58.01.99.02,1.23.02.33,0,.73,0,1.2-.02l-.2,3.03-.29,6.76-.03,1.54c-.45-.01-.84-.02-1.15-.02-.11,0-.53,0-1.27.02Z"/>
      <path class="cls-3" d="M244.64,252.45c.08-.4.13-.68.15-.84s.05-.4.1-.73c.75-.18,1.42-.3,1.99-.37.58-.07,1.13-.11,1.67-.11.61,0,1.17.07,1.68.21s.91.37,1.2.68c.29.31.43.75.43,1.34,0,.32-.04,1.12-.13,2.41-.09,1.29-.14,2.63-.16,4.01-.42-.01-.81-.02-1.16-.02s-.73,0-1.19.02c.07-.67.13-1.45.18-2.33l.11-2.07c-.21.14-.37.24-.48.29-.11.05-.24.11-.37.15-.14.05-.38.12-.73.22s-.63.18-.84.25-.4.15-.57.24c-.17.09-.31.19-.43.31-.12.11-.2.23-.25.36-.05.13-.08.26-.08.4,0,.23.07.43.2.6.14.17.31.29.51.35.2.07.45.1.72.1.18,0,.36-.01.56-.04.2-.03.46-.1.79-.21-.12.32-.25.79-.41,1.41-.39.07-.71.11-.94.12-.23.02-.45.03-.65.03-.7,0-1.27-.09-1.72-.28-.45-.19-.78-.49-.99-.9s-.32-.82-.32-1.24c0-.24.04-.47.12-.71s.2-.45.37-.64c.16-.19.37-.38.62-.56.25-.18.62-.35,1.1-.52.48-.17,1.12-.34,1.91-.51.21-.04.43-.1.66-.16.23-.06.41-.13.54-.19.14-.06.25-.14.35-.24.1-.1.17-.2.22-.3.05-.11.07-.21.07-.32,0-.22-.07-.4-.21-.55s-.32-.25-.55-.31c-.22-.06-.47-.09-.74-.09-1.01,0-2.12.24-3.34.72Z"/>
    </g>
  </g>
  <path class="cls-2" d="M255.27,189.86c0,.88-.19,1.77-.58,2.62-.02.02-.02.05-.03.07-1.5,3.15-5.32,4.44-8.45,2.84l-1.55-.66-36.41-15.66v1.43l31.09,13.49c.77.37,1.39.88,1.89,1.5.85,1.04,1.31,2.33,1.31,3.64,0,1.02-.27,2.06-.85,2.99-1.62,2.65-4.93,3.71-7.79,2.5l-9.2-4.03-24.9-10.92-.15,1.53,22.97,10.22,5.87,2.6c1.79.71,2.79,2.4,2.79,4.15,0,.94-.29,1.89-.92,2.7-1.62,2.11-4.47,2.82-6.89,1.75l-13.79-6.02-14.74-6.43c-.24-.12-1.67.78-1.36.92l14.57,6.14,8.01,3.37c1.24.56,1.9,1.75,1.9,2.94,0,.92-.39,1.84-1.19,2.48-1.26,1.04-2.96,1.36-4.52.85l-14.13-5.66-10.25-4.12-1.43-.58-12.62-5.07-2.02-.82-3.08-1.22c-3.54-1.43-7.19-2.53-10.9-3.35,0,0-.92-.26-2.62-.66-.94-.22-2.09-.49-3.47-.78-2.64-.6-6.04-1.31-10.05-2.06-1.53-.29-4.52-.87-7.55-1.46-.12-.02-.22-.03-.34-.05-.15-.03-.32-.07-.48-.1-1.96-.44-3.74-.78-5.42-1.05-6.97-1.09-12.11-1.09-20.3-3.15-9.61-2.41-19.27-6.36-27.45-11.97-9.01-6.16-16.82-13.77-22.36-23.26-5.85-9.98-8.74-21.33-9.29-32.84-.43-9.06.82-18.55,3.49-27.23,2.31-7.47,5.61-14.91,10.12-21.33,10.65-15.12,26.1-26.29,44.42-30,11.9-2.4,23.31-2.11,35.27-.37,13.11,1.9,25.47,6.51,37.6,11.73,3.95,1.72,6.55,6.24,7.81,10.17,1.41,4.37.37,9.15-1.72,13.09-1.94,3.69-6.21,6.73-10.15,7.82-4.27,1.17-7.86.39-11.68-1.12-.1-.03-.19-.08-.29-.12-9.42-3.88-19.18-6.94-29.27-8.57-.03,0-.09-.02-.14-.02-5.49-.6-11.05-.7-16.58-.15-3.71.65-7.35,1.62-10.88,2.94-2.81,1.33-5.48,2.89-8.01,4.66-2.47,2.06-4.74,4.35-6.82,6.84-2.11,2.98-3.93,6.14-5.48,9.44-.02.02-.02.03-.02.05-1.51,3.95-2.62,8.04-3.35,12.24v.02s0,.05-.02.09c-.41,4.17-.46,8.33-.09,12.5.54,3.18,1.38,6.29,2.5,9.32,1.22,2.55,2.64,4.97,4.27,7.26,2.02,2.4,4.27,4.63,6.67,6.65,3.4,2.43,7.02,4.51,10.82,6.27,5.54,2.16,11.31,3.67,17.19,4.61,3.09.34,6.19.66,9.29.87,4.4.27,8.79.31,13.21-.17.77,0,1.56-.02,2.4-.02,5.12-.1,11.39-.44,15.75-2.21,0,0,12.77-3.78,21.38-6.17,4.54-1.28,9.29-1.68,14-1.21,0,0,30.05,3.99,30.1,3.99l-25.52-.22c-.63.07-1.28.14-1.92.22-7.36.87-15.19,2.16-20.36,7.33l-8.67,8.69c-1.43,1.43-2.45,3.18-2.99,5.08-.31,1.04-.46,2.13-.46,3.21v10.75c0,.48.05.95.15,1.41.65,3.1,3.38,5.41,6.67,5.41,1.75,0,3.38-.63,4.66-1.67,1.28-1.05,2.19-2.53,2.53-4.25l2.5-12.64,12.04-6.94s6.46-.14,14.47-1.12l38.31,18.47c2.21,1.05,3.5,3.26,3.5,5.58Z"/>
  <path class="cls-1" d="M229.46,151.36l.89-1.66h0c1.44.42,2.85.93,4.23,1.54l1.93.85-7.05-.73Z"/>
  <g>
    <path class="cls-1" d="M77.25,253.65c-.32,1.68-.59,3.4-.82,5.14-1.64.29-3.15.49-4.51.6-1.37.12-2.54.17-3.52.17-2.16,0-4.22-.3-6.19-.91-1.96-.6-3.73-1.56-5.31-2.86-1.58-1.3-2.72-2.88-3.42-4.74-.71-1.86-1.06-3.89-1.06-6.09,0-2.39.42-4.6,1.27-6.63.85-2.03,2.07-3.74,3.66-5.14s3.47-2.44,5.65-3.12c2.17-.68,4.44-1.03,6.8-1.03s4.88.27,7.64.8c.04,1.28.09,2.19.13,2.72l.15,2.31c-1.63-.43-2.98-.73-4.06-.89-1.08-.16-2.11-.24-3.09-.24-1.54,0-3.02.23-4.44.7-1.42.47-2.67,1.21-3.76,2.23s-1.92,2.26-2.5,3.7-.87,2.95-.87,4.52c0,1.87.36,3.55,1.08,5.03.72,1.48,1.87,2.68,3.47,3.61,1.59.92,3.56,1.38,5.9,1.38,2.17,0,4.77-.43,7.79-1.3Z"/>
    <path class="cls-1" d="M94.58,236.57c1.65,0,3.24.25,4.76.75,1.52.5,2.81,1.23,3.86,2.2,1.06.97,1.85,2.16,2.39,3.56.53,1.4.8,2.88.8,4.44,0,1.64-.28,3.22-.84,4.75-.56,1.53-1.37,2.85-2.44,3.96-1.07,1.12-2.39,1.95-3.98,2.5s-3.29.83-5.08.83c-1.67,0-3.26-.25-4.76-.75-1.5-.5-2.79-1.24-3.85-2.23-1.07-.99-1.88-2.2-2.43-3.63-.55-1.42-.83-2.91-.83-4.47s.25-3.09.76-4.53c.5-1.44,1.29-2.72,2.36-3.84,1.07-1.12,2.44-1.99,4.11-2.61s3.4-.93,5.18-.93ZM94.58,241.02c-1.25,0-2.36.31-3.34.92-.98.61-1.71,1.52-2.19,2.73-.48,1.21-.72,2.53-.72,3.95,0,1.25.2,2.37.59,3.35.39.98,1.04,1.77,1.94,2.38.9.6,1.96.91,3.2.91s2.37-.31,3.32-.94c.95-.63,1.67-1.55,2.15-2.76s.72-2.56.72-4.03c0-1.19-.19-2.28-.56-3.26-.37-.98-1-1.76-1.88-2.35-.88-.59-1.95-.89-3.22-.89Z"/>
    <path class="cls-1" d="M111.38,259.04l.63-10.26.17-5.96c.03-1.22.04-2.45.04-3.69,0-.21-.01-.9-.04-2.05,1.34.03,2.32.04,2.96.04.73,0,1.71-.01,2.92-.04l-.11,3.04c.55-.78,1.01-1.36,1.4-1.74.39-.38.82-.71,1.31-.98.48-.27,1.02-.48,1.61-.63.59-.14,1.19-.22,1.81-.22.58,0,1.17.07,1.77.22,0,1.34.06,3.04.19,5.1-.85-.23-1.62-.35-2.31-.35-.83,0-1.57.13-2.21.38-.64.25-1.22.63-1.73,1.14-.51.51-.93,1.14-1.26,1.89-.27.6-.47,1.39-.6,2.35-.11.75-.21,2.03-.28,3.84-.08,1.81-.12,3.6-.12,5.35,0,.68.02,1.53.06,2.55-1.1-.03-2.1-.04-3.01-.04s-1.96.01-3.2.04Z"/>
    <path class="cls-1" d="M152.22,259.04c-1.19-.03-2.12-.04-2.79-.04-.72,0-1.71.01-2.98.04l.19-3.76c-.63.82-1.18,1.45-1.63,1.9-.45.45-1.01.86-1.68,1.24s-1.39.67-2.17.85c-.78.19-1.58.28-2.42.28-1.38,0-2.68-.25-3.89-.76-1.21-.5-2.24-1.21-3.09-2.13s-1.48-2-1.88-3.26c-.4-1.26-.6-2.57-.6-3.94,0-1.89.36-3.72,1.08-5.52.72-1.79,1.7-3.24,2.95-4.35s2.67-1.89,4.25-2.35,3.28-.69,5.09-.69c1.31,0,2.79.12,4.44.37.11-1.87.16-3.84.16-5.89v-1.47c1.35.03,2.39.04,3.11.04.94,0,1.99-.01,3.15-.04-.32,3.66-.61,8.63-.89,14.93-.28,6.3-.42,11.14-.42,14.54ZM146.88,241.04c-1.08-.29-2.12-.43-3.11-.43-1.14,0-2.22.16-3.26.47s-1.95.86-2.75,1.62-1.41,1.74-1.85,2.94c-.43,1.2-.65,2.35-.65,3.45s.2,2.12.59,3.04c.4.92,1.01,1.65,1.85,2.18.83.53,1.78.8,2.83.8.79,0,1.51-.14,2.16-.42.65-.28,1.24-.71,1.77-1.3.53-.58.98-1.33,1.35-2.26.37-.92.63-2.14.79-3.67.1-1.12.2-3.27.28-6.43Z"/>
    <path class="cls-1" d="M178.48,254.14c-.19.85-.45,2.37-.8,4.58-1.55.33-2.86.55-3.93.67-1.07.12-2.14.17-3.22.17-1.89,0-3.57-.19-5.06-.56-1.49-.37-2.8-1.06-3.92-2.06-1.12-1-1.95-2.23-2.48-3.68-.53-1.45-.8-2.98-.8-4.57,0-1.77.31-3.48.93-5.14.62-1.66,1.49-3.02,2.6-4.08,1.11-1.06,2.39-1.8,3.81-2.24s2.91-.66,4.47-.66c1.47,0,2.86.18,4.19.55,1.32.37,2.44.97,3.34,1.8.9.83,1.59,1.84,2.07,3.01.48,1.17.72,2.47.72,3.91,0,.68-.07,1.37-.22,2.09l-15.83.02c-.03.53-.04.96-.04,1.27,0,.96.17,1.85.5,2.66.33.81.81,1.49,1.45,2.05.63.56,1.39.98,2.27,1.24.88.27,1.74.4,2.59.4.99,0,2.07-.11,3.23-.32,1.16-.22,2.54-.58,4.13-1.1ZM164.53,245.42l10.1.02c0-.69-.02-1.2-.06-1.53-.04-.33-.14-.71-.29-1.13s-.36-.8-.62-1.12c-.26-.32-.56-.59-.91-.81-.35-.21-.74-.38-1.2-.49s-.94-.17-1.46-.17c-.6,0-1.19.09-1.76.28s-1.09.46-1.57.82c-.47.36-.86.76-1.15,1.2-.3.45-.51.87-.66,1.28-.14.41-.29.96-.43,1.64ZM167.17,234.13l.8-1.99c.16-.43.35-.95.58-1.55.23-.61.45-1.17.67-1.71,1.17.03,2.24.04,3.22.04.81,0,1.89-.01,3.24-.04-.96,1.19-1.68,2.13-2.16,2.81l-1.79,2.44c-.76-.03-1.54-.04-2.33-.04-.71,0-1.45.01-2.22.04Z"/>
    <path class="cls-1" d="M204.59,254.14c-.19.85-.45,2.37-.8,4.58-1.55.33-2.86.55-3.93.67-1.07.12-2.14.17-3.22.17-1.89,0-3.57-.19-5.06-.56-1.49-.37-2.8-1.06-3.92-2.06-1.12-1-1.95-2.23-2.48-3.68-.53-1.45-.8-2.98-.8-4.57,0-1.77.31-3.48.93-5.14.62-1.66,1.49-3.02,2.6-4.08,1.11-1.06,2.39-1.8,3.81-2.24s2.91-.66,4.47-.66c1.47,0,2.86.18,4.19.55,1.32.37,2.44.97,3.34,1.8.9.83,1.59,1.84,2.07,3.01.48,1.17.72,2.47.72,3.91,0,.68-.07,1.37-.22,2.09l-15.83.02c-.03.53-.04.96-.04,1.27,0,.96.17,1.85.5,2.66.33.81.81,1.49,1.45,2.05.63.56,1.39.98,2.27,1.24.88.27,1.74.4,2.59.4.99,0,2.07-.11,3.23-.32,1.16-.22,2.54-.58,4.13-1.1ZM190.64,245.42l10.1.02c0-.69-.02-1.2-.06-1.53-.04-.33-.14-.71-.29-1.13s-.36-.8-.62-1.12c-.26-.32-.56-.59-.91-.81-.35-.21-.74-.38-1.2-.49s-.94-.17-1.46-.17c-.6,0-1.19.09-1.76.28s-1.09.46-1.57.82c-.47.36-.86.76-1.15,1.2-.3.45-.51.87-.66,1.28-.14.41-.29.96-.43,1.64Z"/>
    <path class="cls-1" d="M210.51,258.64l-.47-4.75c1.41.58,2.6.97,3.58,1.2.98.22,1.88.33,2.7.33s1.51-.1,2.07-.29c.56-.19.98-.48,1.25-.86.27-.38.41-.78.41-1.2,0-.19-.02-.36-.05-.52-.04-.16-.1-.32-.19-.5-.09-.17-.2-.34-.32-.49-.12-.15-.29-.32-.51-.52-.22-.19-.53-.44-.93-.75l-1.17-.93c-1.12-.88-1.98-1.57-2.57-2.07-.59-.5-1.09-1.02-1.49-1.54s-.71-1.08-.92-1.66c-.21-.58-.31-1.18-.31-1.78,0-1.05.32-2.05.96-3s1.57-1.64,2.8-2.08c1.22-.44,2.66-.66,4.32-.66,1.89,0,4.06.22,6.52.67l.28,4.51c-1.67-.68-3.28-1.02-4.81-1.02-.83,0-1.57.08-2.19.25-.63.17-1.08.42-1.35.76s-.41.72-.41,1.13c0,.25.04.49.13.72.09.24.24.49.45.75.22.26.46.5.75.73.28.23.87.68,1.76,1.36.89.68,1.67,1.29,2.34,1.83.67.55,1.22,1.1,1.65,1.65s.76,1.15.99,1.78c.23.63.35,1.27.35,1.92,0,1.08-.33,2.08-.99,3-.66.92-1.66,1.64-3,2.16-1.34.52-2.84.78-4.49.78-.86,0-1.91-.07-3.15-.21-1.24-.14-2.56-.38-3.97-.72Z"/>
  </g>
  <path class="cls-4" d="M277.95,259.11v.03h-1.02c.34,0,.68-.02,1.02-.03Z"/>
  <path class="cls-4" d="M80.08,272.46c.02.15.03.31.03.47v19.18c0,2.14-1.73,3.88-3.88,3.88-1.07,0-2.05-.43-2.75-1.13-.7-.7-1.13-1.68-1.13-2.75v-16.24h-15.28c-2.14,0-3.88-1.74-3.88-3.88s1.74-3.88,3.88-3.88h19.16c2.15,0,3.88,1.74,3.88,3.88,0,.17-.02.32-.03.47Z"/>
  <path class="cls-4" d="M257.84,226.81v45.79c0,5.47,8.5,5.48,8.5,0v-45.79c0-5.47-8.5-5.48-8.5,0h0Z"/>
</svg>